<mxfile host="app.diagrams.net" modified="2023-11-13T11:40:36.638Z" agent="Mozilla/5.0 (X11; Linux x86_64; rv:109.0) Gecko/20100101 Firefox/119.0" version="21.2.9" etag="9Dek7oQx57hnnWKS-IQZ" type="github">
  <diagram name="Page-1" id="Ce5yA_hGzne3Ohz2_Zgf">
    <mxGraphModel>
      <root>
        <mxCell id="0" />
        <mxCell id="1" parent="0" />
      </root>
    </mxGraphModel>
  </diagram>
</mxfile>
